<svg width="72" height="72" viewBox="0 0 72 72" fill="none" xmlns="http://www.w3.org/2000/svg">
  <defs>
    <linearGradient id="a" x1="10" x2="62" y1="8" y2="64" gradientUnits="userSpaceOnUse">
      <stop offset="0" stop-color="#5AFFD5"/>
      <stop offset="0.46" stop-color="#3B7DD8"/>
      <stop offset="1" stop-color="#C94040"/>
    </linearGradient>
    <radialGradient id="b" cx="0" cy="0" r="1" gradientTransform="matrix(0 24 -29 0 35 35)" gradientUnits="userSpaceOnUse">
      <stop offset="0" stop-color="#E8E4DC" stop-opacity="0.92"/>
      <stop offset="0.5" stop-color="#5AFFD5" stop-opacity="0.24"/>
      <stop offset="1" stop-color="#0A0B0E" stop-opacity="0"/>
    </linearGradient>
    <linearGradient id="c" x1="20" x2="52" y1="20" y2="52" gradientUnits="userSpaceOnUse">
      <stop offset="0" stop-color="#E8E4DC"/>
      <stop offset="1" stop-color="#5AFFD5"/>
    </linearGradient>
  </defs>
  <rect width="72" height="72" rx="18" fill="#0A0B0E"/>
  <path d="M36 5.5c13.6 0 24.7 5.4 29.7 9.2v31.5C61.2 57 49.8 66.5 36 66.5S10.8 57 6.3 46.2V14.7c5-3.8 16.1-9.2 29.7-9.2Z" fill="#080B10" stroke="url(#a)" stroke-width="2.6" stroke-linejoin="round"/>
  <path d="M14 20.2c6.1-4 13.5-6.2 22-6.2s15.9 2.2 22 6.2M14 47.8c6.1 4 13.5 6.2 22 6.2s15.9-2.2 22-6.2" stroke="#E8E4DC" stroke-opacity="0.16" stroke-width="1.8" stroke-linecap="round"/>
  <path d="M13.8 36s8.5-13.3 22.2-13.3S58.2 36 58.2 36 49.7 49.3 36 49.3 13.8 36 13.8 36Z" fill="url(#b)" stroke="#5AFFD5" stroke-opacity="0.72" stroke-width="2.2"/>
  <circle cx="36" cy="36" r="8.4" fill="#0A0B0E" stroke="url(#c)" stroke-width="2.6"/>
  <path d="M29.8 29.5h12.4M36 29.5v16.1" stroke="#E8E4DC" stroke-width="3" stroke-linecap="round"/>
  <path d="M19.4 25.3 12.8 18.7M52.6 46.7l6.6 6.6" stroke="#D4853A" stroke-width="2.4" stroke-linecap="round"/>
  <path d="M52.4 25.4 59 18.8M19.6 46.6 13 53.2" stroke="#3B7DD8" stroke-width="2.4" stroke-linecap="round"/>
  <circle cx="36" cy="36" r="2.3" fill="#5AFFD5"/>
</svg>
