<svg width="1200" height="800" viewBox="0 0 1200 800" fill="none" xmlns="http://www.w3.org/2000/svg">
  <rect width="1200" height="800" fill="#0B1715"/>
  <rect x="88" y="88" width="1024" height="624" rx="36" fill="#FFFDF7" fill-opacity=".06" stroke="white" stroke-opacity=".12"/>
  <circle cx="382" cy="326" r="120" fill="#2DD4BF" fill-opacity=".2"/>
  <circle cx="786" cy="326" r="120" fill="#FACC15" fill-opacity=".18"/>
  <path d="M382 448C472 542 693 542 786 448" stroke="#5EEAD4" stroke-width="8" stroke-linecap="round"/>
  <rect x="230" y="510" width="710" height="86" rx="18" fill="#071311" stroke="white" stroke-opacity=".12"/>
  <rect x="272" y="540" width="180" height="26" rx="13" fill="#5EEAD4" fill-opacity=".75"/>
  <rect x="492" y="540" width="150" height="26" rx="13" fill="#FACC15" fill-opacity=".75"/>
  <rect x="682" y="540" width="210" height="26" rx="13" fill="white" fill-opacity=".32"/>
  <path d="M295 312C330 277 389 276 424 312M704 312C739 277 798 276 833 312" stroke="white" stroke-opacity=".82" stroke-width="10" stroke-linecap="round"/>
  <path d="M338 382C366 404 400 404 428 382M745 382C773 404 807 404 835 382" stroke="#FACC15" stroke-width="9" stroke-linecap="round"/>
  <path d="M540 250H660M540 306H660M540 362H660" stroke="white" stroke-opacity=".25" stroke-width="8" stroke-linecap="round"/>
</svg>
